<svg width="24" height="25" viewBox="0 0 24 25" fill="none" xmlns="http://www.w3.org/2000/svg">
<path fill-rule="evenodd" clip-rule="evenodd" d="M2.91353 3.16108C2.06504 3.99828 1.39054 4.99505 0.928855 6.094C0.467172 7.19295 0.227433 8.37236 0.223439 9.56434C0.219446 10.7563 0.451278 11.9373 0.905587 13.0393C1.3599 14.1414 2.02771 15.1426 2.87057 15.9855C3.71343 16.8284 4.7147 17.4962 5.81671 17.9505C6.91873 18.4048 8.09973 18.6366 9.29171 18.6326C10.4837 18.6286 11.6631 18.3889 12.7621 17.9272C13.861 17.4655 14.8578 16.791 15.695 15.9425C17.3712 14.2437 18.3074 11.9509 18.2994 9.56434C18.2914 7.17781 17.3398 4.89131 15.6523 3.20376C13.9648 1.51622 11.6782 0.564626 9.29171 0.55663C6.90518 0.548635 4.61235 1.48489 2.91353 3.16108ZM13.3714 13.6189C12.2927 14.6976 10.8297 15.3036 9.30425 15.3036C7.77879 15.3036 6.3158 14.6976 5.23713 13.6189C4.15847 12.5403 3.55248 11.0773 3.55248 9.5518C3.55248 8.02634 4.15847 6.56335 5.23713 5.48468C6.3158 4.40602 7.77879 3.80003 9.30425 3.80003C10.8297 3.80003 12.2927 4.40602 13.3714 5.48468C14.45 6.56335 15.056 8.02634 15.056 9.5518C15.056 11.0773 14.45 12.5403 13.3714 13.6189Z" fill="#C4C4C4"/>
<path d="M13.9514 17.686C13.7225 17.4571 13.5409 17.1853 13.4169 16.8861C13.293 16.587 13.2292 16.2663 13.2292 15.9425C13.2292 15.6187 13.293 15.2981 13.4169 14.9989C13.5409 14.6998 13.7225 14.428 13.9514 14.199C14.1804 13.97 14.4522 13.7884 14.7514 13.6645C15.0505 13.5406 15.3712 13.4768 15.695 13.4768C16.0188 13.4768 16.3394 13.5406 16.6385 13.6645C16.9377 13.7884 17.2095 13.97 17.4385 14.199L23.2475 20.0096C23.4829 20.237 23.6707 20.509 23.7999 20.8097C23.9291 21.1105 23.9971 21.4339 23.9999 21.7612C24.0027 22.0885 23.9404 22.4131 23.8164 22.716C23.6925 23.0189 23.5095 23.2941 23.278 23.5256C23.0466 23.757 22.7714 23.9401 22.4684 24.064C22.1655 24.1879 21.8409 24.2503 21.5136 24.2475C21.1864 24.2446 20.8629 24.1766 20.5622 24.0474C20.2615 23.9182 19.9895 23.7305 19.7621 23.495L13.9514 17.686Z" fill="#C4C4C4"/>
</svg>
