<svg width="51" height="34" viewBox="0 0 51 34" fill="none" xmlns="http://www.w3.org/2000/svg">
<path d="M48.9596 5.23325C48.6765 4.22331 48.125 3.30897 47.3638 2.58741C46.5811 1.84367 45.6217 1.31166 44.5763 1.04158C40.6638 0.0103308 24.9888 0.010331 24.9888 0.010331C18.4541 -0.0640176 11.9209 0.262986 5.42629 0.989497C4.38085 1.27952 3.42329 1.82343 2.63879 2.57283C1.86795 3.3145 1.30962 4.22908 1.01795 5.23116C0.317313 9.00563 -0.0231058 12.8381 0.0012858 16.677C-0.0237142 20.5124 0.315869 24.3437 1.01795 28.1228C1.30337 29.1207 1.85962 30.0312 2.63254 30.7666C3.40545 31.502 4.36795 32.0332 5.42629 32.3145C9.39087 33.3437 24.9888 33.3437 24.9888 33.3437C31.5318 33.4181 38.0733 33.0911 44.5763 32.3645C45.6217 32.0944 46.5811 31.5624 47.3638 30.8187C48.1248 30.0973 48.6756 29.1828 48.9575 28.1728C49.6765 24.3998 50.026 20.5657 50.0013 16.7249C50.0554 12.8678 49.7062 9.01567 48.9596 5.23116V5.23325ZM20.0055 23.8103V9.54575L33.0471 16.6791L20.0055 23.8103Z" fill="#D6CFCF"/>
</svg>
